PathFileType        4      (X/Y/Z)      C:\Users\pc\Desktop\IMUTRC\Sujet_05\Sujet_05_velo_80.trc         
DataRate	CameraRate	NumFrames	NumMarkers	Units	OrigDataRate	OrigDataStartFrame	OrigNumFrames
60.0	60.0	4	64	mm	60.0	867	990
Frame#	Time	pHipOrigin			pRightASI			pLeftASI			pRightCSI			pLeftCSI			pRightIschialTub			pLeftIschialTub			pSacrum			pL5SpinalProcess			pL3SpinalProcess			pT12SpinalProcess			pIJ			pT4SpinalProcess			pT8SpinalProcess			pPX			pC7SpinalProcess			pTopOfHead			pRightAuricularis			pLeftAuricularis			pBackOfHead			pRightAcromion			pLeftAcromion			pRightArmLatEpicondyle			pRightArmMedEpicondyle			pLeftArmLatEpicondyle			pLeftArmMedEpicondyle			pRightUlnarStyloid			pRightRadialStyloid			pRightOlecranon			pLeftUlnarStyloid			pLeftRadialStyloid			pLeftOlecranon			pRightTopOfHand			pRightPinky			pRightBallHand			pLeftTopOfHand			pLeftPinky			pLeftBallHand			pRightGreaterTrochanter			pRightKneeLatEpicondyle			pRightKneeMedEpicondyle			pRightPatella			pLeftGreaterTrochanter			pLeftKneeLatEpicondyle			pLeftKneeMedEpicondyle			pLeftPatella			pRightTibialTub			pRightLatMalleolus			pRightMedMalleolus			pLeftTibialTub			pLeftLatMalleolus			pLeftMedMalleolus			pRightHeelFoot			pRightFirstMetatarsal			pRightFifthMetatarsal			pRightPivotFoot			pRightHeelCenter			pRightToe			pLeftHeelFoot			pLeftFirstMetatarsal			pLeftFifthMetatarsal			pLeftPivotFoot			pLeftHeelCenter			pLeftToe			
		X1	Y1	Z1	X2	Y2	Z2	X3	Y3	Z3	X4	Y4	Z4	X5	Y5	Z5	X6	Y6	Z6	X7	Y7	Z7	X8	Y8	Z8	X9	Y9	Z9	X10	Y10	Z10	X11	Y11	Z11	X12	Y12	Z12	X13	Y13	Z13	X14	Y14	Z14	X15	Y15	Z15	X16	Y16	Z16	X17	Y17	Z17	X18	Y18	Z18	X19	Y19	Z19	X20	Y20	Z20	X21	Y21	Z21	X22	Y22	Z22	X23	Y23	Z23	X24	Y24	Z24	X25	Y25	Z25	X26	Y26	Z26	X27	Y27	Z27	X28	Y28	Z28	X29	Y29	Z29	X30	Y30	Z30	X31	Y31	Z31	X32	Y32	Z32	X33	Y33	Z33	X34	Y34	Z34	X35	Y35	Z35	X36	Y36	Z36	X37	Y37	Z37	X38	Y38	Z38	X39	Y39	Z39	X40	Y40	Z40	X41	Y41	Z41	X42	Y42	Z42	X43	Y43	Z43	X44	Y44	Z44	X45	Y45	Z45	X46	Y46	Z46	X47	Y47	Z47	X48	Y48	Z48	X49	Y49	Z49	X50	Y50	Z50	X51	Y51	Z51	X52	Y52	Z52	X53	Y53	Z53	X54	Y54	Z54	X55	Y55	Z55	X56	Y56	Z56	X57	Y57	Z57	X58	Y58	Z58	X59	Y59	Z59	X60	Y60	Z60	X61	Y61	Z61	X62	Y62	Z62	X63	Y63	Z63	X64	Y64	Z64	
867	14.433	0.0	1249.99512	7.654012613289058E-14	77.38203000000001	1333.17356	123.11568000000008	44.34250999999999	1353.86673	-123.75327999999992	32.749700000000004	1396.1805	113.08790000000009	5.274729999999995	1413.33787	-92.27879999999992	-44.11066	1191.7992	53.61676000000007	-57.84814	1200.37788	-49.03759999999993	-62.02155	1268.36973	9.853890000000082	-27.47497	1369.11128	12.172450000000085	29.50371	1475.18553	10.897240000000089	89.26466	1567.81211	7.419400000000091	349.4074	1593.49019	-13.331739999999924	237.82657	1700.83964	-5.27472999999991	162.41532	1648.38216	1.391140000000091	249.41938	1517.55726	-4.463229999999922	288.19735	1734.11102	-10.375569999999911	568.91733	1764.07844	-47.58849999999993	477.39206	1744.37066	40.864670000000075	457.51039	1731.61856	-103.58178999999993	452.64141	1793.52419	-34.19879999999992	294.10968	1664.78599	190.93364000000008	274.74968	1658.12013	-200.78752999999992	356.65291	1407.07775	185.02130000000005	338.51016	1400.87559	130.99879000000007	376.07087	1423.19176	-175.45722999999995	356.59495	1416.17811	-121.95639999999995	451.71398	1187.79968	185.83280000000005	494.54943	1212.66626	191.62921000000006	323.96118	1397.22386	156.73484000000005	483.01458	1209.42028	-171.63160999999994	523.76332	1236.60542	-181.07974999999993	343.37914	1411.54098	-145.77962999999994	500.69362	1129.19801	351.72596	474.89961	1124.96663	269.47495	480.34823	1166.99058	210.58346000000006	602.47852	1154.93405	-310.10776	543.99278	1148.61597	-246.98488999999998	521.09697	1190.40806	-192.32477999999995	20.229460000000007	1206.0004	145.0261000000001	185.8328	888.29934	94.30754000000005	194.00574	897.34174	24.924550000000043	223.79927	912.76018	63.818440000000045	11.360959999999992	1241.24255	-149.7791499999999	358.10201	1137.66076	-150.99639999999997	366.56477	1146.00759	-81.55543999999996	371.08596	1180.20639	-119.57986999999996	236.14561	857.57838	57.674250000000036	121.26083	499.41841	82.01916000000001	121.08694	500.4038	22.316170000000024	392.6486	1100.73765	-122.76789999999995	190.75975	783.21049	-144.44645999999995	199.74418	779.09504	-85.55495999999997	42.95137	449.45338	50.08095000000003	178.70322	368.65147	-2.2026299999999885	181.89125	360.47854	75.70107000000002	199.04861	352.94321	33.73509000000001	77.49796	431.31063	46.83497000000002	267.21435	310.45555	26.54754	119.63784	727.10127	-112.45028999999997	261.53387	648.90774	-74.59975999999997	260.37459	647.05289	-153.02514	280.31423	637.02511	-112.79807999999997	155.05388	710.40762	-112.62417999999997	350.50872	597.49361	-112.85603999999998	
868	14.45	0.0	1249.99512	7.654012613289058E-14	77.43999000000001	1333.57931	122.76790000000008	44.51639999999999	1353.28709	-124.15902999999992	32.923590000000004	1396.58625	112.45029000000008	5.506589999999995	1412.93212	-92.97435999999992	-44.16862	1192.03106	53.90658000000007	-57.9061	1200.20399	-48.80574999999993	-62.02155	1268.48566	9.737960000000081	-27.35904	1369.22721	11.708740000000086	29.85149	1475.12756	10.31760000000009	89.84431	1567.63822	6.95569000000009	350.16093	1592.56277	-13.157839999999924	238.86992	1700.26	-5.158799999999911	163.28478	1648.03438	1.159280000000091	249.8831	1516.91966	-4.695089999999922	289.29866	1733.35749	-10.027779999999911	569.90272	1763.96251	-47.00885999999993	478.49338	1743.61713	41.44431000000008	458.61171	1731.32874	-103.06010999999992	453.56883	1792.94455	-33.503229999999924	294.63136	1663.9745	190.9916000000001	276.60453	1657.48252	-200.61363999999992	357.75423	1406.61404	185.02130000000005	339.66944	1400.35392	130.99879000000007	377.57794	1422.67008	-175.28333999999995	357.92812	1415.59847	-121.89842999999995	453.10512	1187.4519	185.94873000000007	495.8826	1212.37644	191.80310000000006	325.12046	1396.70218	156.73484000000005	484.34775	1208.78267	-171.57363999999995	525.09649	1236.02578	-180.96381999999994	344.77028	1410.96134	-145.66369999999995	502.14272	1128.85022	351.84189	476.40667	1124.61885	269.59088	481.73937	1166.70076	210.75735000000006	603.8117	1154.64423	-310.16573	545.32595	1148.15226	-247.04285999999996	522.48811	1189.82842	-192.26680999999994	21.56263000000001	1207.15968	145.3159200000001	193.65795	892.70461	95.98850000000004	201.07735	901.34126	26.489580000000046	230.87088	917.74509	64.97772000000005	11.534849999999992	1240.37309	-149.6632199999999	357.92812	1135.68998	-149.08357999999998	366.21698	1144.44256	-79.64262999999995	370.97003	1178.4095	-117.89890999999996	241.18849	859.83898	58.83353000000004	107.17556	508.4608	83.98993000000003	106.59592	509.50416	24.344910000000024	394.61937	1100.44783	-120.33339999999995	208.32286	773.53049	-142.01196999999993	217.01747	770.11061	-83.12046999999997	26.083830000000003	462.72715	52.97916000000003	156.85077	374.38991	1.3320430574513395E-14	160.21268	366.5068	77.96167000000001	176.61651	357.81219	35.879760000000005	59.58706	442.67159	49.50131000000002	242.40573	311.61483	28.344430000000003	140.62083	712.90007	-110.71136999999997	287.09603	643.86487	-72.39711999999997	286.45842	642.24187	-150.76454	306.80381	633.37337	-110.47950999999998	177.02226	698.52498	-110.71136999999997	379.54872	598.24714	-110.36358999999999	
869	14.467	0.0	1249.99512	7.654012613289058E-14	77.32407000000002	1334.68063	122.13029000000009	44.458439999999996	1352.3017	-124.97052999999991	32.69173000000001	1397.51368	111.29101000000009	5.390659999999994	1412.23655	-94.24956999999992	-44.16862	1192.4368	54.312330000000074	-57.79018	1199.79824	-48.45795999999993	-62.02155	1268.48566	9.564070000000081	-27.47497	1369.28518	10.781320000000084	29.73557	1475.24349	9.158320000000089	89.72838	1567.69618	5.854370000000091	350.04501	1592.62073	-13.505629999999924	238.81196	1700.31797	-5.62250999999991	163.16885	1648.09234	0.3477800000000909	249.7092	1516.97762	-5.5645499999999215	289.18273	1733.41545	-10.20167999999991	569.84475	1764.65808	-46.37124999999993	478.26152	1743.73305	41.79209000000008	458.72763	1731.96635	-102.82825999999993	453.39494	1793.29233	-32.98154999999992	294.10968	1663.80061	190.41196000000008	277.47399	1658.17809	-201.0773499999999	358.2759	1406.78793	184.38370000000006	340.19111	1400.41188	130.36119000000005	378.50536	1423.24972	-176.15279999999996	358.50776	1415.94625	-122.94178999999994	453.97458	1187.79968	185.65891000000005	496.75206	1212.78219	191.57124000000005	325.7001	1396.76014	156.03927000000004	485.10128	1209.24638	-172.26920999999993	525.85002	1236.43153	-181.60141999999993	345.52381	1411.48302	-146.70705999999996	503.01218	1129.19801	351.55207	477.27614	1124.96663	269.30106	482.66679	1167.04854	210.46753000000007	604.68116	1155.10795	-310.80333	546.13745	1148.61597	-247.73842999999997	523.24164	1190.29213	-192.96237999999994	23.12766000000001	1208.84064	145.60574000000008	203.91759	899.08066	97.43760000000005	210.29364	907.25359	27.764790000000044	240.02921	924.87467	65.78922000000004	11.30298999999999	1238.22842	-149.4893299999999	356.42105	1129.42986	-147.63447999999997	364.94177	1139.22579	-78.42537999999996	370.04261	1172.49717	-117.20334999999996	248.31807	864.12832	59.645030000000034	95.11904	520.74919	85.32311000000003	94.07568	521.90847	25.678080000000026	395.48884	1096.15849	-118.76837999999995	224.43687	761.06821	-140.67878999999994	232.95759	758.17001	-81.67136999999997	11.592810000000004	479.47877	55.239760000000025	137.08502	384.35973	1.4491000000000152	140.79472	376.59255	79.41077000000001	156.27113	366.85459	37.212930000000014	43.93676	457.74224	51.53006000000003	219.50993	317.35327	29.329820000000005	160.15472	696.5542	-109.55208999999998	310.33962	636.21361	-70.65819999999997	309.99184	634.53265	-149.08358	330.74297	626.88139	-108.74058999999997	197.36765	684.32379	-109.43615999999997	405.34273	596.04451	-108.39280999999998	
870	14.483	0.0	1249.99512	7.654012613289058E-14	76.91832000000001	1336.12973	121.37676000000009	44.458439999999996	1351.08446	-126.01387999999992	32.17006000000001	1398.78889	109.78394000000009	5.216769999999994	1411.1932	-95.98849999999992	-44.11066	1192.95848	54.83401000000007	-57.61628	1199.16064	-47.99424999999993	-62.07952	1268.4277	9.274250000000082	-27.70682	1369.34314	9.622040000000085	29.27185	1475.35942	7.6512600000000885	89.14874	1567.92804	4.347310000000091	349.52333	1593.20037	-14.027299999999924	238.11639	1700.72372	-6.31807999999991	162.53125	1648.38216	-0.8694599999999091	249.30346	1517.44133	-6.7817999999999214	288.48717	1733.87916	-10.60741999999991	569.20715	1765.7594	-45.44382999999993	477.3341	1744.25473	42.255810000000075	458.37985	1733.12563	-102.48046999999993	452.64141	1794.10383	-32.40190999999992	292.9504	1663.9745	189.54250000000008	277.93771	1659.62719	-201.9468099999999	358.50776	1407.3096	183.34035000000006	340.42297	1400.81763	129.31784000000005	379.20093	1424.46697	-177.60189999999994	358.79758	1416.75775	-124.56477999999994	454.67015	1188.55321	185.02130000000005	497.38967	1213.65165	190.99160000000006	325.87399	1397.16589	154.93795000000006	485.565	1210.23177	-173.54441999999995	526.3717	1237.41692	-182.70273999999995	345.98752	1412.52637	-148.33004999999994	503.53386	1130.06747	350.97243	477.91374	1125.77813	268.72142	483.3044	1167.86004	209.88789000000006	605.37673	1156.1513	-311.84669	546.77505	1149.60136	-248.83973999999998	523.82128	1191.27752	-194.06369999999995	24.92455000000001	1210.92734	145.89556000000007	216.3219	907.42748	98.65484000000004	221.6546	915.1367	28.808140000000044	251.10034	934.20688	66.36886000000004	10.78131999999999	1235.21429	-149.25746999999993	353.52285	1119.28615	-146.59112999999996	362.62321	1130.53118	-77.61388999999996	368.18776	1162.7592	-117.14537999999996	257.53435	870.38844	60.224670000000046	84.97532	536.28356	86.01868000000003	83.58419	537.73266	26.431610000000028	395.08309	1088.27537	-117.89890999999996	239.10178	745.82366	-139.80932999999996	247.56453	743.38917	-80.80190999999998	-0.7535299999999966	499.41841	56.978680000000026	119.29005	397.86536	2.3185600000000175	123.28957	390.21411	80.28023000000002	137.89652	379.60668	37.96646000000001	30.431140000000003	476.05889	53.03712000000003	198.46897	326.91734	29.61964000000001	178.35544	678.06367	-108.62465999999998	331.38058	625.95397	-69.26705999999997	331.38058	624.09912	-147.63448	352.36357	617.66511	-107.23352999999999	216.14801	667.86199	-108.39280999999997	428.47039	590.94367	-106.59591999999999	
